<svg width="415" height="415" viewBox="0 0 415 415" fill="none" xmlns="http://www.w3.org/2000/svg">
<g clip-path="url(#clip0_91_818)">
<path d="M21.4265 414.668C15.9643 414.668 10.5021 412.59 6.35208 408.409C-1.97918 400.078 -1.97918 386.571 6.35208 378.239L378.343 6.24845C386.674 -2.08281 400.181 -2.08281 408.512 6.24845C416.844 14.5797 416.844 28.0868 408.512 36.4232L36.5269 408.409C32.3456 412.564 26.8834 414.668 21.4265 414.668V414.668Z" fill="#5F6368"/>
<path d="M393.443 414.668C387.981 414.668 382.524 412.59 378.369 408.409L6.35208 36.4232C-1.97918 28.0868 -1.97918 14.5797 6.35208 6.24845C14.6833 -2.08281 28.1904 -2.08281 36.5269 6.24845L408.512 378.239C416.844 386.571 416.844 400.078 408.512 408.409C404.331 412.564 398.874 414.668 393.443 414.668Z" fill="#5F6368"/>
</g>
<defs>
<clipPath id="clip0_91_818">
<rect width="414.667" height="414.667" fill="white"/>
</clipPath>
</defs>
</svg>
