<svg width="154" height="224" viewBox="0 0 154 224" fill="none" xmlns="http://www.w3.org/2000/svg">
<path d="M1.00166 195.479C3.31585 206.595 39.4172 200.574 39.4172 200.574L55.1537 198.721C55.1537 198.721 47.7483 202.89 54.228 207.985C60.7077 213.08 82.4611 202.427 82.4611 202.427C89.7605 204.862 98.7032 204.852 106.449 204.072C117.612 202.949 126.56 194.326 128.094 183.203C136.746 120.471 89.1723 89.6419 89.1723 89.6419L75.2871 52.1241C75.2871 52.1241 79.6841 41.2394 81.0726 31.5125C82.4611 21.7857 72.2787 12.5221 59.7821 3.25842C47.2854 -6.00522 30.6233 7.42706 30.6233 7.42706C30.6233 7.42706 20.663 -0.979707 11.2119 0.590485C9.13373 0.933235 7.08336 1.75771 5.1672 3.25842C3.18625 4.81007 2.3115 7.39927 2.28373 10.6184C2.13562 24.6806 18.1359 50.6419 28.3091 53.2821C40.8057 56.5244 31.549 100.063 31.549 100.063C11.1841 128.781 25.5321 160.74 25.5321 160.74L21.8294 186.679C21.8294 186.679 -1.31252 184.363 1.00166 195.479V195.479Z" fill="#3F3D56"/>
<path d="M91.9493 143.371L86.8581 206.827C86.8581 206.827 93.8006 224.428 70.1959 223.502C46.5912 222.575 60.4763 186.447 60.4763 186.447L67.8817 139.202" fill="#3F3D56"/>
<path d="M71.9524 224C71.3752 224 70.7844 223.988 70.1779 223.964C64.9524 223.759 61.1046 221.833 58.7407 218.24C51.9821 207.966 59.4991 187.713 60.0266 186.327L67.4243 139.13C67.4641 138.878 67.6992 138.708 67.9536 138.745C68.2058 138.784 68.3785 139.021 68.3392 139.274L60.9338 186.519C60.9283 186.551 60.9202 186.583 60.9085 186.613C60.8276 186.823 52.9236 207.714 59.5145 217.732C61.7049 221.06 65.3045 222.846 70.214 223.039C77.9214 223.34 83.1052 221.694 85.6255 218.144C88.9228 213.499 86.4527 207.061 86.4274 206.997C86.4016 206.931 86.3912 206.86 86.3966 206.79L91.4878 143.334C91.5082 143.079 91.7269 142.893 91.9864 142.909C92.2413 142.93 92.4311 143.153 92.4108 143.408L87.3277 206.76C87.664 207.668 89.7725 213.895 86.384 218.675C83.8768 222.211 79.0256 224 71.9524 224Z" fill="#2F2E41"/>
<path d="M49.8311 156.34C49.8311 156.34 51.2196 215.164 22.0608 213.775C-7.09796 212.385 19.2838 193.858 19.2838 193.858L21.8294 186.679" fill="#3F3D56"/>
<path d="M23.0615 214.262C22.723 214.262 22.3826 214.254 22.0387 214.237C13.713 213.841 9.00894 211.974 8.05727 208.689C6.34288 202.77 17.5174 194.552 18.8964 193.565L21.3932 186.524C21.4787 186.282 21.7431 186.157 21.984 186.242C22.2249 186.328 22.351 186.592 22.2656 186.833L19.72 194.013C19.6879 194.103 19.6282 194.182 19.5496 194.237C19.4275 194.323 7.34109 202.891 8.94656 208.431C9.77619 211.294 14.1958 212.936 22.083 213.312C27.3356 213.565 31.94 211.797 35.7602 208.065C50.086 194.069 49.3773 156.726 49.3683 156.351C49.3624 156.095 49.5644 155.883 49.8203 155.877C50.0621 155.877 50.2876 156.074 50.2939 156.329C50.3305 157.879 51.0216 194.448 36.4074 208.727C32.6455 212.402 28.1595 214.262 23.0615 214.262V214.262Z" fill="#2F2E41"/>
<path d="M2.28375 10.6184C5.60692 11.0167 10.8092 10.9982 15.1182 8.12183C19.7327 5.04166 14.9424 2.16993 11.2119 0.590488C9.13375 0.933239 7.08338 1.75772 5.16722 3.25842C3.18626 4.81007 2.31152 7.39927 2.28375 10.6184Z" fill="#2F2E41"/>
<path d="M61.6334 30.5862C61.6334 30.5862 60.2449 8.35343 71.353 11.5957C82.4611 14.838 85.701 34.7548 85.701 34.7548C85.701 34.7548 97.2719 94.0421 60.2449 79.2203C23.2179 64.3985 47.7483 50.0398 47.7483 50.0398C47.7483 50.0398 59.7821 42.1657 61.6334 30.5862Z" fill="#2F2E41"/>
<path d="M102.15 179.182C107.272 181.463 112.624 183.79 118.227 183.567C123.829 183.345 129.724 179.734 130.597 174.192C131.048 171.331 130.154 168.261 131.249 165.58C132.722 161.973 137.472 160.581 141.165 161.818C144.858 163.054 147.571 166.242 149.517 169.618C153.156 175.934 154.614 184.224 150.712 190.381C147.329 195.719 140.914 198.131 134.946 200.2C126.996 202.955 118.121 205.69 110.418 202.305C102.671 198.901 98.451 189.066 101.32 181.1" fill="#3F3D56"/>
<path d="M85.0596 79.1678C85.0596 79.1678 95.2421 84.2628 90.1509 89.821C85.0596 95.3792 53.5867 111.127 42.0157 108.811C30.4448 106.496 27.6677 99.5478 27.6677 97.6951C27.6677 95.8423 25.3536 89.3578 29.0563 90.2842C32.759 91.2105 59.1407 96.3055 85.0596 79.1678Z" fill="#6C63FF"/>
</svg>
