<svg width="89" height="89" viewBox="0 0 89 89" fill="none" xmlns="http://www.w3.org/2000/svg">
<path d="M61.1907 42.8778V43.0932C61.1907 43.8132 61.7742 44.3969 62.4944 44.3969C63.2146 44.3969 63.7981 43.8132 63.7981 43.0932V42.8778C63.7981 42.1578 63.2146 41.5741 62.4944 41.5741C61.7742 41.5741 61.1907 42.1578 61.1907 42.8778Z" fill="#6C63FF"/>
<path d="M88.1455 67.6591C86.9775 64.7609 84.7506 62.4908 81.8752 61.2674C80.4293 60.6523 78.9065 60.3392 77.3812 60.3281L70.8885 44.2177L73.6995 28.8737C73.8294 28.1655 73.3604 27.4862 72.6522 27.3564C71.9452 27.2272 71.2647 27.6955 71.135 28.4039L67.7471 46.8969C67.5164 48.1579 66.5129 49.1502 65.249 49.3667L61.2042 50.0616C59.6572 50.3251 58.3312 51.3942 57.7442 52.8514L53.9881 62.1707C52.8577 61.4524 51.6303 60.9328 50.2986 60.6278L69.2474 13.6085C69.6258 12.6724 70.6947 12.2173 71.6304 12.594L72.4799 12.937C73.2825 13.2599 73.752 14.1126 73.5964 14.964L72.2145 22.5113C72.0848 23.2194 72.5538 23.8987 73.262 24.0284C73.9707 24.1579 74.6493 23.6891 74.779 22.9808L76.1611 15.4333C76.5386 13.3688 75.3999 11.3016 73.4546 10.5187L72.6051 10.1757C70.3366 9.26259 67.7462 10.3643 66.8295 12.6326L62.4939 23.3908L58.1579 12.6326C57.715 11.5337 56.8703 10.6729 55.7794 10.2087C54.6888 9.74497 53.4828 9.73315 52.3838 10.1761L51.534 10.5185C49.5864 11.3032 48.4489 13.3708 48.8285 15.4337L54.1002 44.2189L47.6051 60.3359C43.0095 60.3766 38.665 63.1384 36.8429 67.6589C35.6748 70.5572 35.7052 73.7368 36.9286 76.6123C38.152 79.4878 40.422 81.7145 43.3203 82.8826C44.7344 83.4526 46.2152 83.7372 47.6952 83.7372C49.2485 83.7372 50.8011 83.4234 52.2738 82.7969C55.1491 81.5735 57.376 79.3037 58.5441 76.4053C59.7123 73.507 59.682 70.3274 58.4584 67.4519C57.8879 66.1108 57.0871 64.9133 56.1038 63.8959L60.1625 53.8255C60.4138 53.2017 60.981 52.7441 61.6442 52.6311L62.4949 52.485L63.346 52.6315C64.0074 52.7441 64.5742 53.2018 64.8258 53.8257L68.8846 63.8964C67.9013 64.9137 67.1008 66.111 66.5303 67.4519C65.3069 70.3274 65.2765 73.507 66.4448 76.4053C68.2973 81.0018 72.7125 83.737 77.2936 83.737C81.782 83.737 86.1428 81.1183 88.06 76.612C89.2832 73.737 89.3136 70.5573 88.1455 67.6591ZM51.393 14.9629C51.2366 14.1126 51.7057 13.2605 52.5085 12.937L53.3585 12.5944C53.8113 12.4118 54.3092 12.4167 54.7589 12.6081C55.2089 12.7995 55.5572 13.1543 55.7398 13.6073L61.0885 26.8783L55.9226 39.6969L51.393 14.9629ZM56.1258 75.431C55.2181 77.6833 53.4875 79.4474 51.2529 80.3981C49.0183 81.3488 46.5472 81.3724 44.2949 80.4647C42.0426 79.557 40.2784 77.8263 39.3278 75.5918C38.3769 73.3572 38.3533 70.8861 39.261 68.6338C41.1351 63.9844 46.4427 61.7262 51.0921 63.6C52.059 63.9898 52.9352 64.5321 53.6964 65.1998C53.7147 65.2161 53.7327 65.2325 53.7522 65.2479C54.7383 66.1275 55.5266 67.2209 56.0594 68.473C57.0099 70.7075 57.0337 73.1785 56.1258 75.431ZM66.571 51.7099C68.0421 51.2035 69.2408 50.1077 69.8861 48.7047L74.6907 60.6267C73.3878 60.9271 72.1604 61.4336 71 62.1708L67.2437 52.851C67.0763 52.4354 66.8469 52.0526 66.571 51.7099ZM85.6606 75.5918C84.7098 77.8263 82.9458 79.557 80.6935 80.4647C78.4412 81.3722 75.9701 81.3488 73.7355 80.3981C71.5009 79.4474 69.7703 77.6833 68.8626 75.431C67.9548 73.1787 67.9783 70.7075 68.9291 68.473C69.8982 66.1951 71.6925 64.4883 73.8963 63.6C76.0566 62.7293 78.5408 62.6824 80.8543 63.6666C83.0888 64.6173 84.8195 66.3815 85.7272 68.6338C86.6351 70.8861 86.6113 73.3572 85.6606 75.5918Z" fill="#6C63FF"/>
<path d="M79.5054 66.8369C78.1179 66.2466 76.5832 66.2316 75.1844 66.7955C72.2969 67.9593 70.8945 71.2553 72.0582 74.1429C72.9442 76.3411 75.0655 77.6786 77.3021 77.6786C78.0033 77.6786 78.7162 77.547 79.4056 77.269C80.8044 76.7053 81.8999 75.6305 82.4904 74.2429C83.0807 72.855 83.0955 71.3205 82.5316 69.9218C81.9678 68.523 80.8932 67.4274 79.5054 66.8369ZM80.0912 73.222C79.7734 73.9689 79.1838 74.5474 78.431 74.8507C76.8769 75.4769 75.1028 74.7223 74.4765 73.1683C73.8504 71.6141 74.605 69.8401 76.159 69.2137C76.918 68.9079 77.744 68.9206 78.4847 69.2359C80.03 69.8937 80.7488 71.6765 80.0912 73.222Z" fill="#6C63FF"/>
<path d="M49.8042 66.7957C46.9162 65.6319 43.6206 67.0344 42.4568 69.9218C41.293 72.8093 42.6955 76.1054 45.5829 77.2692C46.2725 77.5472 46.985 77.6787 47.6864 77.6787C49.9227 77.6787 52.0443 76.3411 52.9303 74.1431C54.0939 71.2554 52.6915 67.9593 49.8042 66.7957ZM50.512 73.1683C49.8855 74.7221 48.1116 75.477 46.5576 74.8507C45.0036 74.2244 44.2486 72.4505 44.8751 70.8963C45.5014 69.3423 47.2757 68.5875 48.8295 69.2138C50.3835 69.8401 51.1381 71.6142 50.512 73.1683Z" fill="#6C63FF"/>
<path d="M37.182 11.1001C37.182 9.35195 35.7598 7.92968 34.0116 7.92968H31.5851C29.9598 7.92968 28.618 9.15934 28.4371 10.7368H25.3681V6.56618C25.3681 5.84618 24.7846 5.26247 24.0644 5.26247C23.3442 5.26247 22.7607 5.84618 22.7607 6.56618V10.7368H19.8948V6.56618C19.8948 5.84618 19.3113 5.26247 18.5911 5.26247C17.8709 5.26247 17.2874 5.84618 17.2874 6.56618V10.7368H14.4218V6.56618C14.4218 5.84618 13.8383 5.26247 13.1181 5.26247C12.3979 5.26247 11.8144 5.84618 11.8144 6.56618V10.7368H8.74512C8.56416 9.15934 7.22221 7.92968 5.59709 7.92968H3.17045C1.42226 7.92968 0 9.35195 0 11.1001V23.3562C0 27.5304 1.49266 31.5814 4.20282 34.763C6.78747 37.7972 10.3243 39.872 14.2065 40.6386V44.8744C13.0634 45.0154 12.1747 45.9906 12.1747 47.1712V53.5603C12.1747 53.8874 12.0722 54.1994 11.878 54.4626L10.2272 56.7019C9.7003 57.4166 9.42183 58.2635 9.42183 59.1511V68.5608C9.42183 69.2808 10.0054 69.8645 10.7255 69.8645C11.4457 69.8645 12.0293 69.2808 12.0293 68.5608V59.1511C12.0293 58.8241 12.132 58.5121 12.326 58.2489L13.9767 56.01C14.5035 55.2954 14.7822 54.4483 14.7822 53.5604V47.4625H22.4004V53.5604C22.4004 54.4482 22.6788 55.2951 23.2057 56.01L24.8567 58.2491C25.0507 58.5123 25.1533 58.8241 25.1533 59.1513V78.2167C25.1533 79.8212 23.8482 81.1264 22.2436 81.1264H14.9391C13.3347 81.1264 12.0293 79.8212 12.0293 78.2167V74.6446C12.0293 73.9246 11.4457 73.3409 10.7255 73.3409C10.0054 73.3409 9.42183 73.9246 9.42183 74.6446V78.2167C9.42183 81.2589 11.8968 83.7337 14.939 83.7337H22.2434C25.2854 83.7337 27.7604 81.2587 27.7604 78.2167V59.1513C27.7604 58.2634 27.4819 57.4163 26.955 56.7019L25.3042 54.463C25.1102 54.1994 25.0074 53.8876 25.0074 53.5604V47.1714C25.0074 45.9906 24.1187 45.0152 22.9754 44.8746V40.6389C26.8549 39.8739 30.3945 37.7984 32.9799 34.763C35.6895 31.5816 37.1818 27.5307 37.1818 23.3564V11.1001H37.182ZM8.76754 22.5012H28.4145V23.3564C28.4145 28.2339 24.4463 32.2022 19.5687 32.2022H17.6131C12.7357 32.2022 8.76737 28.234 8.76737 23.3564V22.5012H8.76754ZM28.4145 13.3443V19.8939H25.368V13.3443H28.4145ZM22.7607 13.3443V19.8939H19.8948V13.3443H22.7607ZM17.2876 13.3443V19.8939H14.4218V13.3443H17.2876ZM11.8146 19.8938H8.76754V13.3443H11.8146V19.8938ZM34.5748 23.3564C34.5748 26.9119 33.3036 30.3624 30.9953 33.0724C28.7119 35.7531 25.5583 37.555 22.1198 38.1457C21.1048 38.3164 20.3683 39.1868 20.3683 40.2151V44.8551H16.8139V40.2151C16.8139 39.1859 16.0768 38.3155 15.0669 38.1464C11.6246 37.555 8.47117 35.753 6.18759 33.0722C3.8788 30.3619 2.60742 26.9114 2.60742 23.3562V11.1001C2.60742 10.7895 2.85999 10.5369 3.17062 10.5369H5.59709C5.90772 10.5369 6.1603 10.7895 6.1603 11.1001V23.3562C6.1603 29.6714 11.298 34.8092 17.6133 34.8092H19.5689C25.8842 34.8092 31.0219 29.6714 31.0219 23.3562V11.1001C31.0219 10.7895 31.2745 10.5369 31.5851 10.5369H34.0116C34.3222 10.5369 34.5748 10.7895 34.5748 11.1001V23.3564Z" fill="#6C63FF"/>
</svg>
