<svg width="89" height="89" viewBox="0 0 89 89" fill="none" xmlns="http://www.w3.org/2000/svg">
<g clip-path="url(#clip0_9_379)">
<path d="M66.09 33.3503H67.6765V34.9369C67.6765 35.6568 68.2602 36.2406 68.9802 36.2406C69.7002 36.2406 70.2839 35.6568 70.2839 34.9369V33.3503H71.8704C72.5904 33.3503 73.1742 32.7666 73.1742 32.0466C73.1742 31.3266 72.5904 30.7429 71.8704 30.7429H70.2839V29.1564C70.2839 28.4364 69.7002 27.8527 68.9802 27.8527C68.2602 27.8527 67.6765 28.4364 67.6765 29.1564V30.7429H66.09C65.37 30.7429 64.7863 31.3266 64.7863 32.0466C64.7863 32.7666 65.37 33.3503 66.09 33.3503Z" fill="#6C63FF"/>
<path d="M79.4 72.9996C79.8573 72.1533 80.1048 71.1972 80.1048 70.1982C80.1048 67.3276 78.0448 64.9295 75.326 64.4051C75.2889 61.1845 72.6568 58.5761 69.4266 58.5761C68.341 58.5761 67.2834 58.8782 66.3698 59.4313C65.275 58.0963 63.6287 57.2878 61.8444 57.2769V44.2546C61.8444 36.6673 56.9907 30.1934 50.2259 27.7718V24.9737C50.2259 21.1744 47.1347 18.0832 43.3353 18.0832H39.9943V8.81987H48.769V12.3352C48.769 13.0552 49.3527 13.6389 50.0727 13.6389H56.4176C57.1376 13.6389 57.7213 13.0552 57.7213 12.3352V4.41002C57.7213 1.97834 55.743 0 53.3113 0H28.2705C25.8388 0 23.8605 1.97834 23.8605 4.41002C23.8605 6.8417 25.8388 8.82004 28.2705 8.82004H30.1034V18.0833H27.1172C26.3972 18.0833 25.8134 18.6671 25.8134 19.3871C25.8134 20.107 26.3972 20.6908 27.1172 20.6908H43.3353C45.6969 20.6908 47.6184 22.6123 47.6184 24.9739V27.0624C46.5571 26.8606 45.4626 26.7539 44.3435 26.7539H25.7543C24.6458 26.7539 23.5502 26.858 22.4792 27.061V24.9741C22.4792 23.9858 22.8243 23.0206 23.4509 22.2563C23.9074 21.6993 23.8261 20.878 23.2693 20.4215C22.7122 19.965 21.891 20.0464 21.4345 20.6032C20.4269 21.8325 19.8718 23.3848 19.8718 24.9741V27.7725C18.4725 28.2716 17.1391 28.9476 15.9032 29.7917C15.4126 28.0899 13.8423 26.8413 11.9847 26.8413C9.73591 26.8413 7.90637 28.6709 7.90637 30.9197V31.09H7.73619C5.48738 31.09 3.65784 32.9196 3.65784 35.1684C3.65784 37.4172 5.48738 39.2467 7.73619 39.2467H7.90637V39.4169C7.90637 40.1724 8.11357 40.8802 8.47322 41.4876C8.32808 42.3939 8.25333 43.3221 8.25333 44.2549V80.0703C8.25333 84.994 12.259 88.9998 17.1829 88.9998L76.6773 89C77.7721 89 78.8345 88.7885 79.8352 88.3711C80.4998 88.094 80.8139 87.3306 80.5368 86.666C80.2597 86.0013 79.4959 85.6877 78.8317 85.9644C78.1507 86.2485 77.4258 86.3924 76.6773 86.3924L52.5943 86.3919C49.5017 86.3809 46.9892 83.8623 46.9892 80.7673C46.9892 79.2644 47.5745 77.8524 48.6383 76.7901C49.6995 75.7275 51.1117 75.1423 52.6144 75.1423H76.6775C79.7793 75.1423 82.3025 77.6657 82.3025 80.7673C82.3025 81.5563 82.143 82.3177 81.828 83.0302C81.537 83.6889 81.835 84.4586 82.4934 84.7497C83.1522 85.0407 83.9219 84.743 84.2129 84.0843C84.6755 83.0377 84.91 81.9217 84.91 80.7673C84.9098 77.1819 82.605 74.1264 79.4 72.9996ZM26.4679 4.41002C26.4679 3.41607 27.2766 2.60742 28.2705 2.60742H53.3113C54.3053 2.60742 55.1139 3.41607 55.1139 4.41002V11.0315H51.3764V7.51615C51.3764 6.79616 50.7927 6.21244 50.0727 6.21244H39.1716H28.2705C27.2766 6.21244 26.4679 5.4038 26.4679 4.41002ZM32.7108 8.81987H37.3867V18.0832H32.7108V8.81987ZM64.8379 61.8844C65.0117 62.2922 65.3809 62.5835 65.8179 62.6581C66.2547 62.7325 66.6997 62.5799 66.9989 62.2529C67.6207 61.5732 68.5055 61.1835 69.4266 61.1835C71.2419 61.1835 72.7189 62.6597 72.7189 64.4741C72.7189 64.7498 72.6843 65.0255 72.6163 65.2937C72.5138 65.698 72.6108 66.1268 72.8772 66.4475C73.1439 66.7684 73.5496 66.9421 73.9638 66.9153C74.0438 66.9101 74.1239 66.9059 74.2065 66.9059C76.0209 66.9059 77.4971 68.3829 77.4971 70.1982C77.4971 71.0891 77.1461 71.92 76.5228 72.5348H61.8438V59.8847C63.1519 59.8991 64.3242 60.6801 64.8379 61.8844ZM7.73619 36.639C6.92511 36.639 6.26526 35.9791 6.26526 35.168C6.26526 34.357 6.92511 33.6971 7.73619 33.6971H9.21008C9.93008 33.6971 10.5138 33.1134 10.5138 32.3934V30.9193C10.5138 30.1083 11.1736 29.4484 11.9847 29.4484C12.7958 29.4484 13.4557 30.1083 13.4557 30.9193V32.3934C13.4557 33.1134 14.0394 33.6971 14.7594 33.6971H16.2334C17.0445 33.6971 17.7044 34.357 17.7044 35.168C17.7044 35.9791 17.0445 36.639 16.2334 36.639H14.7594C14.0394 36.639 13.4557 37.2227 13.4557 37.9427V39.4166C13.4557 40.2277 12.7958 40.8875 11.9847 40.8875C11.1736 40.8875 10.5138 40.2277 10.5138 39.4166V37.9427C10.5138 37.2227 9.93008 36.639 9.21008 36.639H7.73619ZM46.7945 74.9464C45.2386 76.5 44.3816 78.5674 44.3816 80.7673C44.3816 82.9409 45.2297 84.9189 46.6106 86.3919H17.1831C13.6969 86.3919 10.8609 83.5559 10.8609 80.0698V44.2546C10.8609 43.9502 10.8734 43.647 10.8917 43.3449C11.2399 43.4419 11.6063 43.4949 11.9849 43.4949C14.2337 43.4949 16.0633 41.6654 16.0633 39.4166V39.2464H16.2336C18.4824 39.2464 20.312 37.4169 20.312 35.168C20.312 33.569 19.3865 32.1827 18.0435 31.5147C20.3507 30.1147 23.0059 29.3611 25.7545 29.3611H44.3435C52.5559 29.3611 59.2371 36.0424 59.2371 44.2547V72.535H52.6143C50.4143 72.5348 48.3471 73.3918 46.7945 74.9464Z" fill="#6C63FF"/>
<path d="M23.0593 43.2825C16.4483 49.8937 16.4483 60.6507 23.0593 67.2618C26.262 70.4644 30.5199 72.228 35.049 72.228C39.5781 72.228 43.836 70.4644 47.0386 67.2618C50.2412 64.0593 52.0049 59.8012 52.0049 55.2721C52.0049 50.743 50.2412 46.4851 47.0386 43.2825C40.4274 36.6713 29.6704 36.6713 23.0593 43.2825ZM45.1948 65.418C42.4848 68.1279 38.8815 69.6206 35.049 69.6206C31.2164 69.6206 27.6131 68.1281 24.903 65.418C19.3085 59.8235 19.3085 50.7206 24.903 45.1261C27.7006 42.3285 31.3742 40.9303 35.049 40.9303C38.7228 40.9303 42.3979 42.3292 45.1948 45.1261C47.9048 47.8363 49.3974 51.4394 49.3974 55.2721C49.3974 59.1049 47.9048 62.708 45.1948 65.418Z" fill="#6C63FF"/>
<path d="M35.0495 53.0496C31.6534 53.0496 28.8904 55.8126 28.8904 59.2086C28.8904 62.6047 31.6534 65.3677 35.0495 65.3677C38.4455 65.3677 41.2084 62.6047 41.2084 59.2086C41.2084 55.8126 38.4454 53.0496 35.0495 53.0496ZM35.0495 62.7601C33.0911 62.7601 31.4978 61.1668 31.4978 59.2085C31.4978 57.2501 33.0911 55.6568 35.0495 55.6568C37.0078 55.6568 38.6009 57.2501 38.6009 59.2085C38.6009 61.1668 37.0076 62.7601 35.0495 62.7601Z" fill="#6C63FF"/>
<path d="M35.0494 52.3403C37.0243 52.3403 38.631 50.7336 38.631 48.7588C38.631 46.7839 37.0243 45.1772 35.0494 45.1772C33.0746 45.1772 31.4679 46.7839 31.4679 48.7588C31.4679 50.7336 33.0744 52.3403 35.0494 52.3403ZM35.0494 47.7847C35.5866 47.7847 36.0236 48.2217 36.0236 48.7588C36.0236 49.2959 35.5866 49.7329 35.0494 49.7329C34.5123 49.7329 34.0753 49.2959 34.0753 48.7588C34.0753 48.2217 34.5123 47.7847 35.0494 47.7847Z" fill="#6C63FF"/>
<path d="M30.1392 53.1546C30.1392 51.1797 28.5325 49.573 26.5576 49.573C24.5828 49.573 22.9761 51.1797 22.9761 53.1546C22.9761 55.1294 24.5828 56.7361 26.5576 56.7361C28.5325 56.7361 30.1392 55.1292 30.1392 53.1546ZM26.5576 54.1285C26.0205 54.1285 25.5835 53.6915 25.5835 53.1544C25.5835 52.6172 26.0205 52.1803 26.5576 52.1803C27.0948 52.1803 27.5318 52.6172 27.5318 53.1544C27.5318 53.6915 27.0948 54.1285 26.5576 54.1285Z" fill="#6C63FF"/>
<path d="M39.9596 53.1546C39.9596 55.1294 41.5663 56.7361 43.5411 56.7361C45.516 56.7361 47.1227 55.1294 47.1227 53.1546C47.1227 51.1797 45.516 49.573 43.5411 49.573C41.5663 49.573 39.9596 51.1797 39.9596 53.1546ZM44.5153 53.1546C44.5153 53.6917 44.0783 54.1287 43.5411 54.1287C43.004 54.1287 42.567 53.6917 42.567 53.1546C42.567 52.6174 43.004 52.1804 43.5411 52.1804C44.0783 52.1804 44.5153 52.6174 44.5153 53.1546Z" fill="#6C63FF"/>
<path d="M72.9367 43.5754H72.7663C70.5175 43.5754 68.688 45.4049 68.688 47.6538C68.688 49.9026 70.5175 51.7321 72.7663 51.7321H72.9367V51.9025C72.9367 54.1513 74.7662 55.9806 77.0151 55.9806C79.2639 55.9806 81.0934 54.1511 81.0934 51.9025V51.7321H81.2636C83.5124 51.7321 85.3419 49.9026 85.3419 47.6538C85.3419 45.4049 83.5124 43.5754 81.2636 43.5754H81.0934V43.4052C81.0934 41.1564 79.2639 39.3269 77.0151 39.3269C74.7662 39.3269 72.9367 41.1564 72.9367 43.4052V43.5754ZM74.2404 46.1828C74.9604 46.1828 75.5441 45.5991 75.5441 44.8791V43.4052C75.5441 42.5941 76.204 41.9343 77.0151 41.9343C77.8261 41.9343 78.486 42.5941 78.486 43.4052V44.8791C78.486 45.5991 79.0697 46.1828 79.7897 46.1828H81.2636C82.0747 46.1828 82.7345 46.8427 82.7345 47.6538C82.7345 48.4648 82.0747 49.1247 81.2636 49.1247H79.7897C79.0697 49.1247 78.486 49.7084 78.486 50.4284V51.9025C78.486 52.7135 77.8261 53.3732 77.0151 53.3732C76.204 53.3732 75.5441 52.7134 75.5441 51.9025V50.4284C75.5441 49.7084 74.9604 49.1247 74.2404 49.1247H72.7663C71.9553 49.1247 71.2954 48.4648 71.2954 47.6538C71.2954 46.8427 71.9553 46.1828 72.7663 46.1828H74.2404Z" fill="#6C63FF"/>
</g>
<defs>
<clipPath id="clip0_9_379">
<rect width="89" height="89" fill="white"/>
</clipPath>
</defs>
</svg>
