<svg width="512" height="512" viewBox="0 0 512 512" fill="none" xmlns="http://www.w3.org/2000/svg">
<g clip-path="url(#clip0_91_814)">
<path d="M490.667 276.891H21.3333C9.55729 276.891 0 267.333 0 255.557C0 243.781 9.55729 234.224 21.3333 234.224H490.667C502.443 234.224 512 243.781 512 255.557C512 267.333 502.443 276.891 490.667 276.891Z" fill="#5F6368"/>
<path d="M490.667 113.333H21.3333C9.55729 113.333 0 103.776 0 92C0 80.2239 9.55729 70.6667 21.3333 70.6667H490.667C502.443 70.6667 512 80.2239 512 92C512 103.776 502.443 113.333 490.667 113.333Z" fill="#5F6368"/>
<path d="M490.667 440.443H21.3333C9.55729 440.443 0 430.885 0 419.109C0 407.333 9.55729 397.776 21.3333 397.776H490.667C502.443 397.776 512 407.333 512 419.109C512 430.885 502.443 440.443 490.667 440.443Z" fill="#5F6368"/>
</g>
<defs>
<clipPath id="clip0_91_814">
<rect width="512" height="512" fill="white"/>
</clipPath>
</defs>
</svg>
